<svg class="svg-icon" style="width: 1em;height: 1em;vertical-align: middle;fill: currentColor;overflow: hidden;" viewBox="0 0 1024 1024" version="1.1" xmlns="http://www.w3.org/2000/svg"><path d="M506.945242 464.401723m-400.955366 0a400.955366 400.955366 0 1 0 801.910733 0 400.955366 400.955366 0 1 0-801.910733 0Z" fill="#F2F2FF" /><path d="M517.050601 140.464904c-180.757476 0-327.303886 146.538096-327.303886 327.308043 0 87.726653 34.535303 167.372345 90.727915 226.138062-48.061769-54.430098-77.247176-125.915848-77.247175-204.239654 0-170.531568 138.240977-308.776702 308.772545-308.776702 170.527411 0 308.776702 138.245134 308.776702 308.776702 0 112.181538-59.829877 210.379355-149.314887 264.443649h4.260795c100.571391-55.843435 168.631877-163.140648 168.631877-286.346214 0.004157-180.76579-146.533939-327.303886-327.303886-327.303886z" fill="#6E6E96" opacity=".25" /><path d="M665.608937 750.752094c100.575548-55.851749 168.644348-163.153118 168.644348-286.350371 0-180.761633-146.54641-327.303886-327.3122-327.303886-180.769947 0-327.308043 146.538096-327.308043 327.303886 0 123.184782 68.052172 230.469524 168.611093 286.321273l317.364802 0.029098z" fill="#B6B6D1" /><path d="M669.915458 767.379587l-325.982-0.029098-3.766128-2.090908c-109.280041-60.70282-177.165938-175.981229-177.165938-300.857858 0-189.644871 154.290664-343.931379 343.935536-343.931379 189.649028 0 343.939693 154.286508 343.939693 343.931379 0 124.897414-67.898368 240.19245-177.20335 300.886956l-3.757813 2.090908z m-317.302449-33.284084l308.631211 0.029098c96.572479-55.361238 156.385729-158.314518 156.385729-269.722878 0-171.304747-139.371646-310.676393-310.684707-310.676393-171.308904 0-310.68055 139.36749-310.68055 310.676393-0.004157 111.387576 59.792465 214.332542 156.348317 269.69378z" fill="#6E6E96" /><path d="M425.237741 616.805167h171.836827v64.074044h-171.836827z" fill="#F2F2FF" /><path d="M597.074568 697.506704h-171.836827a16.627493 16.627493 0 0 1-16.627493-16.627493v-64.074044a16.627493 16.627493 0 0 1 16.627493-16.627493h171.836827a16.627493 16.627493 0 0 1 16.627493 16.627493v64.074044a16.627493 16.627493 0 0 1-16.627493 16.627493z m-155.209334-33.254986h138.581841v-30.819058h-138.581841v30.819058z" fill="#6E6E96" /><path d="M500.92609 57.393949c-221.440795 0-400.95121 179.510415-400.95121 400.95121s179.510415 400.947053 400.95121 400.947052 400.95121-179.510415 400.951209-400.947052c0-221.440795-179.510415-400.95121-400.951209-400.95121z m0 771.573872c-208.408997 0-377.365111-168.956113-377.365111-377.360954 0-208.408997 168.956113-377.365111 377.365111-377.365111 208.421468 0 377.369268 168.956113 377.369267 377.365111 0 208.413154-168.9478 377.360954-377.369267 377.360954z" fill="#6E6E96" opacity=".15" /><path d="M174.482676 705.205233a16.598395 16.598395 0 0 1-13.792505-7.320253c-46.660902-69.070606-71.323631-149.809555-71.323631-233.483257 0-230.257523 187.325336-417.582859 417.578702-417.58286s417.574546 187.325336 417.574546 417.58286c0 83.677859-24.666886 164.416808-71.323631 233.483257a16.627493 16.627493 0 0 1-27.555913-18.618636c42.932187-63.546121 65.624558-137.846074 65.624558-214.868778 0-211.917398-172.406318-384.327873-384.31956-384.327873-211.917398 0-384.323717 172.410475-384.323716 384.327873 0 77.018548 22.692371 151.3185 65.624558 214.868778a16.627493 16.627493 0 0 1-13.763408 25.938889z" fill="#6E6E96" /><path d="M680.706701 479.200192c0-92.469645-74.965052-167.434698-167.430541-167.434698-92.473802 0-167.438855 74.965052-167.438854 167.434698H252.486403c0-144.023188 116.758256-260.781443 260.7856-260.781444 144.019031 0 260.777287 116.758256 260.777287 260.781444h-93.342589z" fill="#FF9FAD" /><path d="M790.676783 495.827685h-126.597575v-16.627493c0-83.154093-67.648955-150.807205-150.803048-150.807205-83.158249 0-150.811362 67.648955-150.811361 150.807205v16.627493H235.85891v-16.627493c0-152.964622 124.448471-277.408936 277.413093-277.408937 152.960465 0 277.40478 124.444315 277.40478 277.408937v16.627493z m-94.086669-33.254986h60.270505c-8.571473-126.901027-114.555113-227.526457-243.588616-227.526458-129.041816 0-235.025457 100.625431-243.601086 227.526458h60.278819C338.388189 368.843521 417.389565 295.138001 513.27616 295.138001c95.882438 0 174.879658 73.70552 183.313954 167.434698z" fill="#6E6E96" /><path d="M367.511243 262.922233l52.177073 77.417608A166.690617 166.690617 0 0 1 513.27616 311.765494V218.418748c-53.993627 0-104.150459 16.407179-145.764917 44.503485z" fill="#B9FF7F" /><path d="M415.198893 363.431272L344.436439 258.436967l13.767564-9.294769c45.883567-30.977019 99.503075-47.350943 155.068-47.350943h16.627493V328.392987h-16.627493a150.071438 150.071438 0 0 0-84.284762 25.726888l-13.788348 9.311397z m-24.296925-95.558203l33.695615 49.998872a182.902423 182.902423 0 0 1 72.051084-21.994017v-60.274662a242.607594 242.607594 0 0 0-105.746699 32.269807z" fill="#6E6E96" /><path d="M513.27616 218.418748l-1.022591 0.008314-0.914512 93.388314c0.644315-0.008314 1.284474-0.049882 1.937103-0.049882 33.600006 0 64.86385 9.934927 91.08125 26.97395l52.202014-77.446705c-41.128104-27.090343-90.366268-42.873991-143.283264-42.873991z" fill="#FFF59F" /><path d="M609.004794 361.593934l-13.709368-8.912337A150.171203 150.171203 0 0 0 513.27616 328.392987l-1.729259 0.045726-17.001612 0.216157 1.242905-126.855301 17.487966-0.008314c54.413471 0 107.122624 15.771177 152.424228 45.617527l14.033605 9.244886-70.729199 104.940266z m-80.880283-65.8615c24.94124 2.00777 49.105144 9.057827 71.178141 20.759425l33.749654-50.077852a242.894418 242.894418 0 0 0-104.341676-30.885569l-0.586119 60.203996z" fill="#6E6E96" /><path d="M656.546954 261.296896L604.35741 338.743601a168.029131 168.029131 0 0 1 57.55191 63.417259l83.357779-42.188107a262.132427 262.132427 0 0 0-88.720145-98.675857z" fill="#FFAF5F" /><path d="M654.7304 424.42923l-7.57798-14.607253a151.51803 151.51803 0 0 0-51.852837-57.132066l-14.183251-9.211631 70.841434-105.119011 13.738466 9.05367a278.984391 278.984391 0 0 1 94.348552 104.948579l7.673588 14.88992-112.987972 57.177792z m-27.568383-89.771835a185.11388 185.11388 0 0 1 41.261123 45.567644l53.873078-27.264931a245.94972 245.94972 0 0 0-61.463528-68.26833l-33.670673 49.965617z" fill="#6E6E96" /><path d="M367.511243 262.922233a261.999407 261.999407 0 0 0-86.957632 98.488798L363.890606 403.599138a168.182935 168.182935 0 0 1 55.79771-63.250984L367.511243 262.922233z" fill="#82E0AC" /><path d="M371.202546 425.938175L258.197947 368.731285l7.528097-14.840038a279.021803 279.021803 0 0 1 92.482116-104.749049l13.792506-9.315553 70.758296 105.002619-13.767564 9.294768A151.725874 151.725874 0 0 0 378.718173 411.114765l-7.515627 14.82341zM303.416414 354.348503l53.831509 27.252462a185.396547 185.396547 0 0 1 39.78959-45.110389l-33.695614-50.003028a246.045328 246.045328 0 0 0-59.925485 67.860955z" fill="#6E6E96" /><path d="M512.818904 492.7225m-73.098616 0a73.098616 73.098616 0 1 0 146.197232 0 73.098616 73.098616 0 1 0-146.197232 0Z" fill="#9494AD" opacity=".25" /><path d="M512.818904 582.448609c-49.475105 0-89.726109-40.251004-89.726109-89.721952s40.251004-89.726109 89.726109-89.726109 89.726109 40.251004 89.726109 89.726109-40.251004 89.721952-89.726109 89.721952z m0-146.197232c-31.139138 0-56.471123 25.331986-56.471123 56.471123s25.331986 56.466966 56.471123 56.466967 56.471123-25.331986 56.471123-56.466967-25.331986-56.471123-56.471123-56.471123z" fill="#6E6E96" opacity=".25" /><path d="M512.045726 465.241411m-73.098617 0a73.098616 73.098616 0 1 0 146.197233 0 73.098616 73.098616 0 1 0-146.197233 0Z" fill="#9494AD" /><path d="M512.045726 554.963363c-49.475105 0-89.726109-40.251004-89.72611-89.721952s40.251004-89.726109 89.72611-89.726109c49.475105 0 89.721952 40.251004 89.721952 89.726109s-40.246847 89.721952-89.721952 89.721952z m0-146.193075c-31.139138 0-56.471123 25.331986-56.471124 56.471123s25.331986 56.466966 56.471124 56.466966c31.139138 0 56.466966-25.331986 56.466966-56.466966s-25.327829-56.471123-56.466966-56.471123z" fill="#6E6E96" /><path d="M252.486403 479.200192h93.350903a166.520186 166.520186 0 0 1 18.061614-75.605211L280.557768 361.406874c-17.949379 35.387462-28.071365 75.409838-28.071365 117.793318z" fill="#6FBF93" /><path d="M362.464799 495.827685H235.85891v-16.627493c0-44.079484 10.05132-86.238492 29.871291-125.313101l7.515627-14.815097 113.01707 57.211047-7.532254 14.844194a149.011435 149.011435 0 0 0-16.261689 68.077113v16.623337z m-92.802196-33.254986h60.278819a180.915438 180.915438 0 0 1 12.254463-51.324914l-53.827352-27.248305a240.433549 240.433549 0 0 0-18.70593 78.573219z" fill="#6E6E96" /><path d="M513.27616 218.418748c-144.031501 0-260.7856 116.758256-260.7856 260.781444h32.594043c0-125.479376 101.722845-227.198064 227.202221-227.198065s227.198064 101.722845 227.198065 227.198065h34.568558c0-144.023188-116.754099-260.781443-260.777287-260.781444z" fill="#6E6E96" opacity=".15" /><path d="M522.824498 505.712729a16.627493 16.627493 0 0 1-10.467007-29.555369l156.759847-126.747222a16.627493 16.627493 0 1 1 20.904916 25.855752l-156.759847 126.747222a16.523571 16.523571 0 0 1-10.437909 3.699617z" fill="#6E6E96" opacity=".25" /><path d="M512.058196 481.864747a16.619179 16.619179 0 0 1-10.46285-29.555368l156.759847-126.743066a16.627493 16.627493 0 1 1 20.904916 25.859909l-156.759847 126.743065c-3.076086 2.48581-6.775703 3.69546-10.442066 3.69546z" fill="#FFFFFF" /><path d="M983.360329 971.993359c0 16.319884-13.356034 29.684232-29.684232 29.684232H79.028396c-16.324041 0-29.684232-13.356034-29.684232-29.684232v-189.025498c0-16.328198 13.351877-29.684232 29.684232-29.684232h874.651858c16.324041 0 29.680075 13.34772 29.680075 29.684232v189.025498z" fill="#A8A8BD" /><path d="M164.219356 874.365034m-38.588254 0a38.588254 38.588254 0 1 0 77.176509 0 38.588254 38.588254 0 1 0-77.176509 0Z" fill="#00DFB3" /><path d="M164.219356 929.580781c-30.44494 0-55.215747-24.770808-55.215747-55.215747s24.766651-55.211591 55.215747-55.211591 55.215747 24.766651 55.215748 55.211591-24.770808 55.215747-55.215748 55.215747z m0-77.176509c-12.108972 0-21.960761 9.847633-21.960761 21.956605s9.85179 21.960761 21.960761 21.960761 21.960761-9.85179 21.960762-21.960761-9.85179-21.956605-21.960762-21.956605z" fill="#6E6E96" /><path d="M668.730749 839.189572h245.363601v57.393949h-245.363601z" fill="#E0E0E0" /><path d="M914.09435 913.211014h-245.363601a16.627493 16.627493 0 0 1-16.627493-16.627493V839.189572a16.627493 16.627493 0 0 1 16.627493-16.627493h245.363601a16.627493 16.627493 0 0 1 16.627493 16.627493v57.393949a16.627493 16.627493 0 0 1-16.627493 16.627493z m-228.736108-33.254986h212.108615v-24.138963h-212.108615v24.138963zM544.057807 913.2027a16.627493 16.627493 0 0 1-16.627493-16.627493V839.189572a16.627493 16.627493 0 0 1 33.254986 0v57.385635a16.627493 16.627493 0 0 1-16.627493 16.627493zM478.395837 913.2027a16.627493 16.627493 0 0 1-16.627493-16.627493V839.189572a16.627493 16.627493 0 0 1 33.254986 0v57.385635a16.627493 16.627493 0 0 1-16.627493 16.627493zM415.859835 913.2027a16.627493 16.627493 0 0 1-16.627493-16.627493V839.189572a16.627493 16.627493 0 0 1 33.254986 0v57.385635a16.627493 16.627493 0 0 1-16.627493 16.627493zM353.30305 913.2027a16.627493 16.627493 0 0 1-16.627493-16.627493V839.189572a16.627493 16.627493 0 0 1 33.254986 0v57.385635a16.627493 16.627493 0 0 1-16.627493 16.627493z" fill="#6E6E96" /><path d="M955.658925 953.079585H81.007067c-16.324041 0-29.684232-47.197139-29.684231-63.525337v65.504009c0 16.328198 13.356034 29.692546 29.684231 29.692546H955.663082c16.324041 0 29.692546-13.356034 29.692546-29.692546v-65.504009c-0.008314 16.324041-13.368504 63.525337-29.696703 63.525337z" fill="#6E6E96" opacity=".25" /><path d="M953.688567 772.189089H79.028396c-16.324041 0-29.684232 26.051125-29.684232 42.375166v25.722732c0-16.328198 13.351877-42.371009 29.684232-42.371009h874.651858c16.324041 0 29.680075 26.046968 29.680075 42.371009v-25.722732c0-16.324041-13.356034-42.375166-29.671762-42.375166z" fill="#FFFFFF" opacity=".19" /><path d="M953.676097 1018.300927H79.028396c-25.535672 0-46.311725-20.776053-46.311725-46.311725v-189.025498c0-25.535672 20.776053-46.311725 46.311725-46.311724h874.651858c25.535672 0 46.307568 20.776053 46.307568 46.311724v189.025498c0 25.535672-20.776053 46.311725-46.311725 46.311725z m-874.647701-248.389805a13.06921 13.06921 0 0 0-13.056739 13.056739v189.025498a13.073366 13.073366 0 0 0 13.056739 13.056739h874.647701a13.073366 13.073366 0 0 0 13.056739-13.056739v-189.025498a13.06921 13.06921 0 0 0-13.052582-13.056739H79.028396z" fill="#6E6E96" /></svg>